<?xml version="1.0" encoding="utf-8"?><svg xmlns="http://www.w3.org/2000/svg" xmlns:xlink="http://www.w3.org/1999/xlink"><symbol viewBox="0 0 24 24" id="arrow" xmlns="http://www.w3.org/2000/svg"><path d="M13 5.586l-4.707 4.707a.999.999 0 101.414 1.414L12 9.414V17a1 1 0 102 0V9.414l2.293 2.293a.997.997 0 001.414 0 .999.999 0 000-1.414L13 5.586z"/></symbol><symbol viewBox="0 0 7 12" id="arrow-btn" xmlns="http://www.w3.org/2000/svg"><path d="M1.32 0L0 1.415l4.358 4.587L0 10.585 1.32 12 7 6.002 1.32 0z"/></symbol><symbol viewBox="0 0 35 35" id="arrow-down" xmlns="http://www.w3.org/2000/svg"><g clip-path="url(#ca)"><path d="M35 10.69l-4.126-4.127-13.38 13.619L4.126 6.562 0 10.69l17.494 17.748L35 10.69z"/></g><defs><clipPath id="ca"><path transform="matrix(0 1 1 0 0 0)" d="M0 0h35v35H0z"/></clipPath></defs></symbol><symbol viewBox="0 0 26 14" id="arrow-top" xmlns="http://www.w3.org/2000/svg"><path d="M0 11.359L3.065 14l9.94-8.716L22.934 14 26 11.359 13.004 0 0 11.359z"/></symbol><symbol viewBox="0 0 50 56" id="discord" xmlns="http://www.w3.org/2000/svg"><path fill-rule="evenodd" clip-rule="evenodd" d="M43.522.114c3.15 0 5.716 2.566 5.716 5.745v50.027l-5.995-5.299-3.375-3.123-3.569-3.318 1.478 5.159H6.155c-3.151 0-5.717-2.566-5.717-5.745V5.86C.438 2.68 3.004.115 6.155.115h37.367zM32.758 36.533c6.162-.195 8.533-4.239 8.533-4.239 0-8.979-4.016-16.257-4.016-16.257-4.015-3.012-7.836-2.928-7.836-2.928l-.39.446c4.74 1.45 6.943 3.542 6.943 3.542A22.732 22.732 0 0027.6 14.42a23.593 23.593 0 00-5.633.055l-.474.056c-.976.084-3.347.446-6.33 1.757-1.032.474-1.646.809-1.646.809s2.315-2.203 7.334-3.653l-.279-.335s-3.82-.084-7.835 2.928c0 0-4.016 7.278-4.016 16.257 0 0 2.342 4.044 8.505 4.239 0 0 1.032-1.255 1.869-2.315-3.542-1.06-4.88-3.29-4.88-3.29l.78.474.112.084.11.062.032.014.109.063c.697.39 1.394.697 2.036.948 1.143.446 2.51.893 4.099 1.2 2.091.39 4.545.53 7.222.027 1.31-.223 2.65-.613 4.044-1.199a15.956 15.956 0 003.206-1.645s-1.394 2.287-5.047 3.318c.837 1.06 1.84 2.259 1.84 2.259zM19.79 23.51c-1.59 0-2.845 1.395-2.845 3.096 0 1.7 1.283 3.095 2.845 3.095 1.59 0 2.844-1.394 2.844-3.095.028-1.701-1.255-3.096-2.844-3.096zm10.178 0c-1.59 0-2.844 1.395-2.844 3.096 0 1.7 1.282 3.095 2.844 3.095 1.59 0 2.844-1.394 2.844-3.095 0-1.701-1.255-3.096-2.844-3.096z"/></symbol><symbol viewBox="0 0 20 20" id="download" xmlns="http://www.w3.org/2000/svg"><g clip-path="url(#fa)"><path d="M9.357 16.097a.913.913 0 00.067.06l.031.024.04.03.04.023.036.022.042.02.039.018c.013.006.027.01.04.015l.044.015.041.01.045.012.048.007.04.006a.927.927 0 00.18 0l.04-.006.047-.007.046-.011.04-.01.045-.016.04-.015.04-.018.04-.02.037-.022c.014-.008.027-.015.04-.024l.039-.028.032-.025a.962.962 0 00.064-.057l.003-.003 4.242-4.242a.91.91 0 00-1.285-1.286l-2.691 2.69V.91a.91.91 0 00-1.818 0v12.35L6.4 10.57a.91.91 0 00-1.286 1.286l4.242 4.242zm9.733 2.085H.91A.91.91 0 00.91 20h18.18a.91.91 0 100-1.818z"/></g><defs><clipPath id="fa"><path d="M0 0h20v20H0z"/></clipPath></defs></symbol><symbol viewBox="0 0 24 24" id="home" xmlns="http://www.w3.org/2000/svg"><path d="M12 3s-6.186 5.34-9.643 8.232A1.041 1.041 0 002 12a1 1 0 001 1h2v7a1 1 0 001 1h3a1 1 0 001-1v-4h4v4a1 1 0 001 1h3a1 1 0 001-1v-7h2a1 1 0 001-1 .98.98 0 00-.383-.768C18.184 8.34 12 3 12 3z"/></symbol><symbol viewBox="0 0 56 47" id="telegram" xmlns="http://www.w3.org/2000/svg"><path fill-rule="evenodd" clip-rule="evenodd" d="M42.835 46.048c.748.53 1.713.663 2.573.337a2.696 2.696 0 001.682-1.952c2.02-9.49 6.918-33.511 8.756-42.144a1.814 1.814 0 00-.604-1.762A1.86 1.86 0 0053.39.202C43.646 3.808 13.639 15.067 1.374 19.606a1.921 1.921 0 00-1.26 1.856 1.925 1.925 0 001.378 1.776c5.5 1.645 12.72 3.934 12.72 3.934s3.375 10.19 5.134 15.372c.22.65.73 1.162 1.401 1.339.67.174 1.385-.01 1.885-.482l7.194-6.792s8.301 6.086 13.01 9.44zM17.25 25.885l3.902 12.869.866-8.15 23.67-21.346a.645.645 0 00.076-.876.66.66 0 00-.873-.149L17.25 25.885z"/></symbol><symbol viewBox="0 0 35 35" id="user" xmlns="http://www.w3.org/2000/svg"><g clip-path="url(#ia)"><path d="M23.333 16.042a4.357 4.357 0 004.36-4.375 4.356 4.356 0 00-4.36-4.375 4.37 4.37 0 00-4.375 4.375 4.37 4.37 0 004.375 4.375zm-11.666 0c2.42 0 4.36-1.955 4.36-4.375a4.357 4.357 0 00-4.36-4.375 4.37 4.37 0 00-4.375 4.375 4.37 4.37 0 004.375 4.375zm0 2.916c-3.398 0-10.209 1.707-10.209 5.105v3.645h20.417v-3.645c0-3.398-6.81-5.105-10.208-5.105zm11.666 0c-.423 0-.904.03-1.414.073 1.691 1.225 2.873 2.873 2.873 5.032v3.645h8.75v-3.645c0-3.398-6.81-5.105-10.209-5.105z"/></g><defs><clipPath id="ia"><path d="M0 0h35v35H0z"/></clipPath></defs></symbol><symbol viewBox="0 0 55 33" id="vk" xmlns="http://www.w3.org/2000/svg"><path d="M30.163 32.528c1.395 0 1.966-.93 1.95-2.097-.07-4.393 1.636-6.758 4.719-3.676 3.41 3.41 4.115 5.773 8.257 5.773h7.333c1.852 0 2.58-.596 2.58-1.53 0-1.979-3.256-5.469-6.015-8.03-3.864-3.587-4.045-3.672-.718-7.99C52.397 9.618 57.796 2.75 53.02 2.75h-9.123c-1.77 0-1.898.997-2.528 2.482-2.28 5.378-6.614 12.345-8.259 11.28-1.721-1.112-.933-5.514-.802-12.057.034-1.728.025-2.913-2.615-3.527a18.493 18.493 0 00-4.146-.47c-5.209 0-8.802 2.184-6.76 2.565 3.6.671 3.254 8.46 2.416 11.825-1.463 5.857-6.958-4.639-9.247-9.866-.553-1.256-.722-2.232-2.693-2.232h-7.46C.677 2.75 0 3.117 0 3.933c0 1.38 6.783 15.4 13.26 22.39 6.315 6.817 12.558 6.205 16.903 6.205z"/></symbol><symbol viewBox="0 0 30 30" id="windows" xmlns="http://www.w3.org/2000/svg"><path d="M13.77 2.535v11.481c0 .136.11.246.246.246H29.75c.136 0 .246-.11.246-.246V.246a.246.246 0 00-.281-.243L13.98 2.292a.246.246 0 00-.21.243zm-1.72 25.001a.246.246 0 00.245-.246V15.984a.246.246 0 00-.246-.246H.255a.246.246 0 00-.246.246v9.69c0 .123.091.227.213.243l11.794 1.617a.268.268 0 00.033.002zM.257 14.262h11.792c.136 0 .246-.11.246-.246V2.821a.246.246 0 00-.279-.244L.213 4.18A.246.246 0 000 4.424l.01 9.593c0 .135.111.245.247.245zM29.75 30a.246.246 0 00.246-.246L30 15.984a.246.246 0 00-.246-.246H14.016a.246.246 0 00-.246.246V27.54c0 .122.09.226.212.243l15.734 2.214a.249.249 0 00.034.002z"/></symbol></svg>